<?xml version="1.0" encoding="utf-8"?>
<!-- Generator: Adobe Illustrator 23.0.1, SVG Export Plug-In . SVG Version: 6.00 Build 0)  -->
<svg version="1.1" id="Layer_1" xmlns="http://www.w3.org/2000/svg" xmlns:xlink="http://www.w3.org/1999/xlink" x="0px" y="0px"
	 viewBox="0 0 206.5 50.3" style="enable-background:new 0 0 206.5 50.3;" xml:space="preserve">
<style type="text/css">
	.st0{fill:#353744;}
	.st1{fill:#4C84FF;}
</style>
<g id="company-logo">
	<g id="brand-name">
		<g>
			<path class="st0" d="M132.1,16.1c-5.3,0-9.4,4.3-9.4,9.2c0,4.8,3.7,9.3,9.3,9.3c5.3,0,9.3-4.3,9.3-9.2
				C141.2,20.7,137.6,16.1,132.1,16.1z M132,30c-2.7,0-4.6-2.2-4.6-4.6c0-2.4,2-4.6,4.6-4.6c2.7,0,4.6,2.2,4.6,4.6
				C136.6,27.8,134.6,30,132,30z"/>
			<path class="st0" d="M80.7,34.5V16.2h7.9c3.4,0,6.2,3,6.2,6.4c0,3.2-2.4,6.3-6,6.3h-3v5.6H80.7z M85.8,24.5h2.6
				c1.7,0,1.9-3.9-0.1-3.9h-2.5V24.5z"/>
			<path class="st0" d="M108.7,16.1c-5.3,0-9.4,4.3-9.4,9.2c0,4.8,3.7,9.3,9.3,9.3c5.3,0,9.3-4.3,9.3-9.2
				C117.9,20.7,114.3,16.1,108.7,16.1z M108.6,30c-2.7,0-4.6-2.2-4.6-4.6c0-2.4,2-4.6,4.6-4.6c2.7,0,4.6,2.2,4.6,4.6
				C113.2,27.8,111.3,30,108.6,30z"/>
			<path class="st0" d="M152.1,25.5v9h-5.1V16.2h3.9l7.3,9.3v-9.3h5.1v18.3h-4L152.1,25.5z"/>
			<path class="st0" d="M170.3,34.5V16.2h5.1v6.9l5.5-6.9h5.6l-6.7,8.2l7.1,10.1h-5.7l-4.5-6.7l-1.4,1.4v5.2L170.3,34.5L170.3,34.5z
				"/>
			<path class="st0" d="M206.5,20.6h-5.2v13.9h-5.1V20.6h-5.2v-4.4h15.6V20.6z"/>
		</g>
	</g>
	<g id="sign">
		<ellipse transform="matrix(0.7071 -0.7071 0.7071 0.7071 -13.1019 40.2428)" class="st1" cx="42" cy="35.9" rx="5.8" ry="5.8"/>
		<path class="st1" d="M50,11.9C50,1.8,37.7-4.3,29.5,3.6c-1.7,1.6-4.3,1.8-6.2,0.4c-6.1-4.5-14.2-3.5-19,1.3c-6,6-6,16.7,1.9,22.2
			c1.9,1.3,2.5,3.9,1.5,6c-4,8.2,2.7,17.7,11.7,16.7c9.6-1,13.8-12.6,7.2-19.5c-3.8-4,0.9-10.5,5.9-8.2C41.5,26.8,50,20.2,50,11.9z"
			/>
	</g>
</g>
</svg>
